<svg xmlns="http://www.w3.org/2000/svg" xmlns:xlink="http://www.w3.org/1999/xlink" width="115" height="21" viewBox="0 0 115 21"><defs><path id="a" d="M635.12 4532.95c.9 0 1.63-.72 1.63-1.62 0-.9-.78-1.63-1.63-1.63h-3.3v3.25zm-.92-7.37a1.62 1.62 0 1 0 0-3.25h-2.38v3.25zm-7.3 11.42v-18.75h8.27c3 0 5.55 2.58 5.55 5.58a5.5 5.5 0 0 1-1.2 3.37 5.59 5.59 0 0 1 2.13 4.3c0 2.98-2.53 5.5-5.5 5.5zm26.67-18.75a9.4 9.4 0 0 1 9.37 9.4 9.35 9.35 0 0 1-18.72 0c0-5.17 4.18-9.4 9.35-9.4zm0 4.9a4.46 4.46 0 1 0 .03 8.93 4.46 4.46 0 0 0-.03-8.93zm17.23 6.38a2.45 2.45 0 0 0 4.9 0v-11.28h4.95v11.35c0 4.13-3.33 7.4-7.4 7.4a7.35 7.35 0 0 1-7.4-7.4v-11.35h4.95zm27.37 7.47l-8.85-8.87v8.87h-4.92v-18.75h2l8.87 8.85v-8.85h4.93V4537zm16.63-12.55a4.38 4.38 0 0 0-3.15-1.22 4.25 4.25 0 0 0-4.4 4.4c0 2.55 1.85 4.4 4.4 4.4a4.3 4.3 0 0 0 3.15-1.25l3.5 3.45a9.38 9.38 0 1 1-.05-13.25zm17.07 5.65v6.9H727v-6.9l-6.85-11.85h5.67l3.6 6.25 3.63-6.25h5.67z"/></defs><g transform="translate(-625 -4517)"><use fill="#fff" xlink:href="#a"/><use fill="#323a45" xlink:href="#a"/></g></svg>