<svg xmlns="http://www.w3.org/2000/svg" xmlns:xlink="http://www.w3.org/1999/xlink" width="28" height="28" viewBox="0 0 28 28"><defs><path id="a" d="M683 4612.2a12.8 12.8 0 1 1 0 25.6 12.8 12.8 0 0 1 0-25.6z"/><path id="b" d="M677.41 4621.8h2.4v7.99h-2.4zm12 3.45v4.54H687v-4.36c0-.9-.26-1.79-1.31-1.79s-1.9.9-1.9 1.81v4.34h-2.4v-8.02h2.4v1.11a3.6 3.6 0 0 1 2.95-1.36c1.16 0 2.66.58 2.66 3.73zm-10.81-6.65a1.2 1.2 0 1 1 0 2.4 1.2 1.2 0 0 1 0-2.4z"/></defs><g transform="translate(-669 -4611)"><use fill="#0e76a8" xlink:href="#a"/></g><g transform="translate(-669 -4611)"><use fill="#fff" xlink:href="#b"/></g></svg>