<svg xmlns="http://www.w3.org/2000/svg" xmlns:xlink="http://www.w3.org/1999/xlink" width="28" height="28" viewBox="0 0 28 28"><defs><path id="a" d="M719 4612.2a12.8 12.8 0 1 1 0 25.6 12.8 12.8 0 0 1 0-25.6z"/><path id="b" d="M726.2 4620.58v8.84a2.79 2.79 0 0 1-2.78 2.78h-8.84a2.79 2.79 0 0 1-2.78-2.78v-8.84a2.79 2.79 0 0 1 2.78-2.78h8.84a2.79 2.79 0 0 1 2.78 2.78zm-4-1.17v2.4l2.41-.01v-2.4h-.32zm-5.61 5.59a2.41 2.41 0 0 0 4.82 0c0-.53-.41-2.41-2.41-2.41s-2.41 1.88-2.41 2.41zm8.03-1.6h-1.97c.18.45.29 1.08.29 1.6a3.94 3.94 0 0 1-7.88 0c0-.52.1-1.15.3-1.6h-2v5.84c0 .76.61 1.38 1.37 1.38h8.51c.76 0 1.38-.62 1.38-1.38z"/></defs><g transform="translate(-705 -4611)"><use fill="#fff" xlink:href="#a"/></g><g transform="translate(-705 -4611)"><use fill="#3f729b" xlink:href="#b"/></g></svg>