<svg xmlns="http://www.w3.org/2000/svg" xmlns:xlink="http://www.w3.org/1999/xlink" width="28" height="28" viewBox="0 0 28 28"><defs><path id="a" d="M755 4612.2a12.8 12.8 0 1 1 0 25.6 12.8 12.8 0 0 1 0-25.6z"/><path id="b" d="M747.8 4622.6c1.2-.96 2.9-3.05 4.23-3.05 1.32 0 1.65 1.56 1.83 2.98.18 1.42.7 4.53 1.4 4.53s2.3-2.75 2.21-3.81c-.09-1.06-1.24-.9-1.88-.6.58-2.12 1.94-3.25 3.66-3.25 1.73 0 2.15 1.22 2.15 2.72 0 2.28-4.63 9.28-7.42 9.28-1.73 0-2.16-2.55-2.51-3.81-.35-1.26-1.04-4.57-1.85-4.78-.31-.05-1.2.65-1.2.65z"/></defs><g transform="translate(-741 -4611)"><use fill="#86c9ef" xlink:href="#a"/></g><g transform="translate(-741 -4611)"><use fill="#fff" xlink:href="#b"/></g></svg>